<svg width="194" height="115" viewBox="0 0 194 115" fill="none" xmlns="http://www.w3.org/2000/svg">
<circle cx="138" cy="52" r="52" fill="#77EBDD"/>
<path d="M17.2413 109.353V114.426H0V89.252H17.0321V94.3248H5.50399V99.0869H15.2311V104.16H5.50399V109.353H17.2413Z" fill="#6C6C6C"/>
<path d="M20.627 101.84C20.627 93.4504 24.6852 88.8975 32.1233 88.8975C36.8474 88.8975 39.6692 90.7998 41.5715 94.7502L36.4225 97.2867C35.4016 94.9215 34.311 94.002 32.1233 94.002C28.1031 94.002 26.1628 96.6462 26.1628 101.833C26.1628 107.02 28.1411 109.626 31.9141 109.626C34.0256 109.626 35.5094 108.923 36.6001 106.627L41.2671 109.988C39.4663 113.057 36.543 114.782 31.6731 114.782C24.6853 114.775 20.627 110.197 20.627 101.84Z" fill="#6C6C6C"/>
<path d="M44.2168 104.281C44.2168 97.5845 47.4951 93.8115 53.665 93.8115C59.8348 93.8115 63.1194 97.6162 63.1194 104.281C63.1194 110.945 59.8412 114.75 53.665 114.75C47.4888 114.75 44.2168 110.932 44.2168 104.281ZM57.6535 104.281C57.6535 100.647 56.5248 98.8844 53.665 98.8844C50.8052 98.8844 49.7208 100.647 49.7208 104.281C49.7208 107.914 50.8496 109.677 53.665 109.677C56.4804 109.677 57.6535 107.939 57.6535 104.281V104.281Z" fill="#6C6C6C"/>
<path d="M93.5128 101.661V114.388H88.0848V101.661C88.0848 100.006 87.1274 98.9092 85.5801 98.9092C84.0329 98.9092 83.1135 100.006 83.1135 101.661V114.388H77.6792V101.661C77.6792 100.006 76.7978 98.9092 75.2505 98.9092C73.7033 98.9092 72.7775 100.006 72.7775 101.661V114.388H67.3496V101.661C67.3496 96.9751 70.1016 93.8363 75.2505 93.8363C76.2318 93.8046 77.2071 94.0011 78.0995 94.4104C78.9919 94.8197 79.7771 95.4307 80.3931 96.1952C81.0239 95.4364 81.8182 94.83 82.7164 94.4216C83.6147 94.0131 84.5937 93.813 85.5801 93.8363C90.7291 93.8363 93.5128 96.9751 93.5128 101.661Z" fill="#6C6C6C"/>
<path d="M124.716 101.662V114.388H119.263V101.662C119.263 100.007 118.312 98.9099 116.727 98.9099C115.141 98.9099 114.26 100.007 114.26 101.662V114.388H108.826V101.662C108.826 100.007 107.951 98.9099 106.397 98.9099C104.843 98.9099 103.93 100.007 103.93 101.662V114.388H98.4961V101.662C98.4961 96.9758 101.248 93.837 106.397 93.837C107.379 93.8067 108.355 94.0038 109.248 94.413C110.141 94.8222 110.928 95.4324 111.546 96.1959C112.176 95.4379 112.969 94.8321 113.866 94.4236C114.763 94.0152 115.741 93.8147 116.727 93.837C121.933 93.837 124.716 96.9758 124.716 101.662Z" fill="#6C6C6C"/>
<path d="M133.772 45.6022C131.606 45.6022 129.728 45.6022 127.858 45.6022C126.767 45.6022 126.339 45.248 126.362 44.1621C126.409 41.6616 126.409 39.1586 126.362 36.6531C126.362 35.5672 126.783 35.1821 127.866 35.2129C129.736 35.2668 131.614 35.2129 133.772 35.2129C133.772 32.3556 133.858 29.6755 133.772 27.0031C133.702 25.3781 134.107 24.6926 135.907 24.7927C138.938 24.9391 141.985 24.8312 145.257 24.8312V35.1667H160.365V45.556H145.265V52.6954C145.265 55.645 145.265 58.5947 145.265 61.5444C145.265 64.2938 145.912 66.766 148.756 67.8365C151.6 68.9071 154.366 68.2293 156.617 66.0498C156.937 65.7417 157.249 65.4106 157.763 64.8869L165.999 71.0481C162.305 75.7614 157.677 78.4107 151.818 78.5417C149.229 78.6026 146.644 78.2965 144.143 77.6329C138.143 76.0002 134.302 71.1636 133.967 64.7251C133.671 59.1569 133.811 53.5656 133.757 47.9897C133.764 47.2735 133.772 46.5264 133.772 45.6022Z" fill="#212121"/>
<path d="M119.656 44.9811L110.158 49.91C108.88 47.7844 107.314 46.2903 104.75 46.2056C100.901 46.067 97.9012 48.2003 97.6597 52.0742C97.3402 57.4652 97.5817 62.8101 97.5817 68.4245H108.755V78.6829H78.4375V68.5246H85.7228C85.7695 67.6313 85.824 66.9843 85.824 66.2681C85.824 61.909 85.7617 57.5423 85.8864 53.1755C86.2136 41.9159 92.3847 35.824 103.807 35.462C109.838 35.2849 115.144 36.7789 118.479 42.3163C118.775 42.8092 119.04 43.3252 119.258 43.8566C119.411 44.2243 119.543 44.5996 119.656 44.9811V44.9811Z" fill="#212121"/>
<path d="M13.8885 47.1838C13.1968 47.1838 12.5051 47.0983 11.7977 47.0516V36.8133C12.4737 36.7589 12.9846 36.6889 13.5033 36.6889C19.1782 36.6889 24.8531 36.6889 30.5279 36.6889L35.1181 26.085C34.8575 26.0516 34.5949 26.036 34.3321 26.0383C23.4619 26.0928 12.5916 26.0383 1.71346 26.0383C1.14755 26.0383 0.581634 26.1161 0 26.1628V78.8788H11.617V57.8188H21.4026L26.0006 47.1916C21.9606 47.1994 17.9285 47.1916 13.8885 47.1838Z" fill="#212121"/>
<path d="M74.0422 57.714C73.5017 62.409 73.5202 64.5977 72.1878 68.0711C69.1958 75.8805 61.4664 79.8313 52.0696 78.8532C41.4885 77.7827 35.2006 71.5368 34.4759 60.9857C34.1619 57.4153 34.2902 53.8203 34.8577 50.2806C36.6265 40.569 42.6494 35.4475 52.654 34.8776C57.6796 34.5849 62.5183 35.3628 66.6791 38.4126C71.658 42.0554 73.4111 47.3386 74.0422 53.1225C74.1088 54.4052 74.1088 55.6905 74.0422 56.9732V57.714ZM45.8129 56.6423V56.9193C45.9297 58.3826 45.9921 59.8613 46.1869 61.3169C46.3248 62.1455 46.5629 62.9549 46.8959 63.7275C48.1192 66.8081 50.4879 68.2868 54.2513 68.2791C58.0147 68.2714 60.5626 66.8389 61.6145 63.7275C63.1261 59.3196 63.1261 54.5422 61.6145 50.1343C60.5626 47.0537 58.0225 45.5904 54.2591 45.5904C50.4957 45.5904 47.9712 46.9766 46.9427 50.142C46.3498 52.3526 46.1177 54.3752 45.8129 56.6423Z" fill="#212121"/>
<ellipse cx="183.888" cy="26.0376" rx="10.1123" ry="10.0376" fill="#212121"/>
<path d="M183.533 25.5156C183.388 25.5156 183.244 25.4978 183.096 25.4881V23.3609C183.237 23.3496 183.344 23.335 183.452 23.335C184.639 23.335 185.826 23.335 187.012 23.335L187.972 21.1318C187.917 21.1249 187.863 21.1216 187.808 21.1221C185.535 21.1334 183.262 21.1221 180.987 21.1221C180.869 21.1221 180.751 21.1383 180.629 21.148V32.101H183.058V27.7253H185.104L186.066 25.5172C185.221 25.5189 184.378 25.5172 183.533 25.5156Z" fill="white"/>
</svg>
